<?xml version="1.0" encoding="UTF-8"?>
<!DOCTYPE svg PUBLIC "-//W3C//DTD SVG 1.1//EN" "http://www.w3.org/Graphics/SVG/1.1/DTD/svg11.dtd">
<svg xmlns="http://www.w3.org/2000/svg" version="1.1" width="182px" height="162px" style="shape-rendering:geometricPrecision; text-rendering:geometricPrecision; image-rendering:optimizeQuality; fill-rule:evenodd; clip-rule:evenodd" xmlns:xlink="http://www.w3.org/1999/xlink">
    <g><path style="opacity:1" fill="#fefefe" d="M -0.5,-0.5 C 60.1667,-0.5 120.833,-0.5 181.5,-0.5C 181.5,53.5 181.5,107.5 181.5,161.5C 120.833,161.5 60.1667,161.5 -0.5,161.5C -0.5,107.5 -0.5,53.5 -0.5,-0.5 Z"/></g>
    <g><path style="opacity:1" fill="#d2d1b8" d="M 118.5,14.5 C 132.036,20.7637 142.369,30.4303 149.5,43.5C 149.631,44.3764 149.298,45.0431 148.5,45.5C 145.785,43.5028 143.118,41.5028 140.5,39.5C 137.717,42.3506 135.384,42.0172 133.5,38.5C 133.709,37.914 134.043,37.414 134.5,37C 132.193,36.6909 130.026,35.8576 128,34.5C 127.667,34.8333 127.333,35.1667 127,35.5C 125.837,33.7148 125.17,31.7148 125,29.5C 123.893,28.2881 123.393,28.6214 123.5,30.5C 122.883,30.3893 122.383,30.056 122,29.5C 121.098,31.9269 120.264,34.2603 119.5,36.5C 119.631,35.7611 119.464,35.0944 119,34.5C 118.346,35.6956 117.846,35.6956 117.5,34.5C 118.127,33.5832 118.461,32.5832 118.5,31.5C 120.736,29.4258 121.403,27.0925 120.5,24.5C 120.69,20.9682 120.023,17.6348 118.5,14.5 Z"/></g>
    <g><path style="opacity:1" fill="#959490" d="M 120.5,24.5 C 121.403,27.0925 120.736,29.4258 118.5,31.5C 116.528,32.451 114.528,33.451 112.5,34.5C 112.863,35.1835 113.196,35.8501 113.5,36.5C 107.47,37.8319 101.47,39.1652 95.5,40.5C 94.5041,40.5858 93.6708,40.2524 93,39.5C 92.5831,40.756 91.7498,41.4226 90.5,41.5C 90.5,40.5 90.5,39.5 90.5,38.5C 95.413,38.2483 99.913,36.9149 104,34.5C 105.714,35.9255 107.047,35.5922 108,33.5C 110.215,34.8198 111.715,34.1531 112.5,31.5C 111.369,30.3961 110.535,30.7295 110,32.5C 109.517,31.552 109.351,30.552 109.5,29.5C 113.548,28.6421 117.215,26.9755 120.5,24.5 Z"/></g>
    <g><path style="opacity:1" fill="#e1e0c6" d="M 118.5,14.5 C 120.023,17.6348 120.69,20.9682 120.5,24.5C 117.215,26.9755 113.548,28.6421 109.5,29.5C 106.455,29.5079 103.455,29.8413 100.5,30.5C 89.9851,21.2592 79.6517,21.2592 69.5,30.5C 64.4704,30.0195 59.4704,29.3529 54.5,28.5C 52.6455,27.3104 50.8121,25.9771 49,24.5C 50.0785,28.8492 50.5785,33.1826 50.5,37.5C 50.7373,38.791 50.404,39.791 49.5,40.5C 49.5391,38.6412 48.7058,37.3079 47,36.5C 46.6667,34.5 46.3333,32.5 46,30.5C 44.951,32.1066 43.451,32.7733 41.5,32.5C 41.5,33.5 41.5,34.5 41.5,35.5C 40.1667,35.5 38.8333,35.5 37.5,35.5C 37.0241,40.6375 34.3574,43.9708 29.5,45.5C 29.0392,49.2122 28.3725,52.8789 27.5,56.5C 26.5,56.5 25.5,56.5 24.5,56.5C 24.5,59.1667 24.5,61.8333 24.5,64.5C 23.5,64.5 22.5,64.5 21.5,64.5C 21.5,74.5 21.5,84.5 21.5,94.5C 22.5,94.5 23.5,94.5 24.5,94.5C 24.5,97.1667 24.5,99.8333 24.5,102.5C 25.5,102.5 26.5,102.5 27.5,102.5C 28.576,105.734 29.2427,109.068 29.5,112.5C 33.5633,113.552 35.5633,116.219 35.5,120.5C 37.5,120.5 39.5,120.5 41.5,120.5C 42.64,123.025 43.3067,125.692 43.5,128.5C 46.8388,128.78 49.5055,130.28 51.5,133C 53.1341,133.494 54.8008,133.66 56.5,133.5C 56.5,134.5 56.5,135.5 56.5,136.5C 58.1667,136.5 59.8333,136.5 61.5,136.5C 61.5,137.5 61.5,138.5 61.5,139.5C 75.0942,141.6 88.7609,141.933 102.5,140.5C 107.065,139.295 111.398,137.962 115.5,136.5C 116.257,132.081 118.923,129.748 123.5,129.5C 124.853,128.476 125.52,127.143 125.5,125.5C 127.5,124.833 129.5,124.167 131.5,123.5C 132.001,120.822 133.501,118.822 136,117.5C 136.494,115.866 136.66,114.199 136.5,112.5C 138.5,111.833 140.5,111.167 142.5,110.5C 143.347,106.201 144.013,101.867 144.5,97.5C 145.5,97.5 146.5,97.5 147.5,97.5C 147.5,85.5 147.5,73.5 147.5,61.5C 146.5,61.5 145.5,61.5 144.5,61.5C 143.833,58.1667 143.167,54.8333 142.5,51.5C 141.5,51.5 140.5,51.5 139.5,51.5C 139.5,49.5 139.5,47.5 139.5,45.5C 136.162,44.4875 133.496,42.4875 131.5,39.5C 128.914,38.52 126.247,38.1866 123.5,38.5C 123.5,35.8333 123.5,33.1667 123.5,30.5C 123.393,28.6214 123.893,28.2881 125,29.5C 125.17,31.7148 125.837,33.7148 127,35.5C 127.333,35.1667 127.667,34.8333 128,34.5C 130.026,35.8576 132.193,36.6909 134.5,37C 134.043,37.414 133.709,37.914 133.5,38.5C 135.384,42.0172 137.717,42.3506 140.5,39.5C 143.118,41.5028 145.785,43.5028 148.5,45.5C 149.298,45.0431 149.631,44.3764 149.5,43.5C 158.533,59.7118 161.033,77.0452 157,95.5C 149.637,125.197 131.137,144.031 101.5,152C 86.5693,154.671 71.9026,153.671 57.5,149C 53.4401,147.311 49.7734,145.144 46.5,142.5C 47.0431,142.44 47.3764,142.107 47.5,141.5C 46.8108,139.556 46.3108,137.556 46,135.5C 44.9887,134.663 43.8221,134.33 42.5,134.5C 42.7804,131.612 41.4471,130.112 38.5,130C 41.2001,127.054 40.7001,124.554 37,122.5C 36.3333,123.167 35.6667,123.833 35,124.5C 33.9431,122.781 33.1097,120.947 32.5,119C 30.2992,118.175 28.4659,118.675 27,120.5C 25.8904,118.963 24.3904,118.297 22.5,118.5C 5.04754,88.3631 6.88087,59.3631 28,31.5C 54.2185,4.10458 84.3851,-1.56209 118.5,14.5 Z"/></g>
    <g><path style="opacity:1" fill="#afafa4" d="M 54.5,28.5 C 59.4704,29.3529 64.4704,30.0195 69.5,30.5C 73.4431,33.2392 77.6098,35.9058 82,38.5C 84.1559,35.9387 86.3226,35.9387 88.5,38.5C 88.2786,39.7348 87.6119,40.7348 86.5,41.5C 87.2334,42.087 88.2334,42.087 89.5,41.5C 88.343,43.1376 87.1764,44.8043 86,46.5C 83.8925,45.9595 81.7258,44.9595 79.5,43.5C 79.6107,42.8826 79.944,42.3826 80.5,42C 77.4721,39.2894 74.1388,38.1227 70.5,38.5C 69.3044,38.1543 69.3044,37.6543 70.5,37C 68.1339,36.4375 65.8006,36.6042 63.5,37.5C 60.3794,35.5723 57.0461,34.239 53.5,33.5C 53.6399,31.8762 52.9733,30.7096 51.5,30C 52.2438,28.9614 53.2438,28.4614 54.5,28.5 Z"/></g>
    <g><path style="opacity:1" fill="#b6b6a9" d="M 109.5,29.5 C 109.351,30.552 109.517,31.552 110,32.5C 110.535,30.7295 111.369,30.3961 112.5,31.5C 111.715,34.1531 110.215,34.8198 108,33.5C 107.047,35.5922 105.714,35.9255 104,34.5C 99.913,36.9149 95.413,38.2483 90.5,38.5C 90.5,39.5 90.5,40.5 90.5,41.5C 90.1667,41.5 89.8333,41.5 89.5,41.5C 88.2334,42.087 87.2334,42.087 86.5,41.5C 87.6119,40.7348 88.2786,39.7348 88.5,38.5C 92.4492,35.6452 96.4492,32.9786 100.5,30.5C 103.455,29.8413 106.455,29.5079 109.5,29.5 Z"/></g>
    <g><path style="opacity:1" fill="#e2e1c8" d="M 123.5,30.5 C 123.5,33.1667 123.5,35.8333 123.5,38.5C 126.247,38.1866 128.914,38.52 131.5,39.5C 133.496,42.4875 136.162,44.4875 139.5,45.5C 139.5,47.5 139.5,49.5 139.5,51.5C 140.5,51.5 141.5,51.5 142.5,51.5C 143.167,54.8333 143.833,58.1667 144.5,61.5C 145.5,61.5 146.5,61.5 147.5,61.5C 147.5,73.5 147.5,85.5 147.5,97.5C 146.5,97.5 145.5,97.5 144.5,97.5C 144.013,101.867 143.347,106.201 142.5,110.5C 140.5,111.167 138.5,111.833 136.5,112.5C 136.66,114.199 136.494,115.866 136,117.5C 133.501,118.822 132.001,120.822 131.5,123.5C 129.5,124.167 127.5,124.833 125.5,125.5C 125.52,127.143 124.853,128.476 123.5,129.5C 118.923,129.748 116.257,132.081 115.5,136.5C 111.398,137.962 107.065,139.295 102.5,140.5C 88.7609,141.933 75.0942,141.6 61.5,139.5C 61.5,138.5 61.5,137.5 61.5,136.5C 59.8333,136.5 58.1667,136.5 56.5,136.5C 56.5,135.5 56.5,134.5 56.5,133.5C 54.8008,133.66 53.1341,133.494 51.5,133C 49.5055,130.28 46.8388,128.78 43.5,128.5C 43.3067,125.692 42.64,123.025 41.5,120.5C 39.5,120.5 37.5,120.5 35.5,120.5C 35.5633,116.219 33.5633,113.552 29.5,112.5C 29.2427,109.068 28.576,105.734 27.5,102.5C 26.5,102.5 25.5,102.5 24.5,102.5C 24.5,99.8333 24.5,97.1667 24.5,94.5C 23.5,94.5 22.5,94.5 21.5,94.5C 21.5,84.5 21.5,74.5 21.5,64.5C 22.5,64.5 23.5,64.5 24.5,64.5C 24.5,61.8333 24.5,59.1667 24.5,56.5C 25.5,56.5 26.5,56.5 27.5,56.5C 28.3725,52.8789 29.0392,49.2122 29.5,45.5C 34.3574,43.9708 37.0241,40.6375 37.5,35.5C 38.8333,35.5 40.1667,35.5 41.5,35.5C 41.5,34.5 41.5,33.5 41.5,32.5C 43.451,32.7733 44.951,32.1066 46,30.5C 46.3333,32.5 46.6667,34.5 47,36.5C 48.7058,37.3079 49.5391,38.6412 49.5,40.5C 46.2244,41.1216 44.8911,43.1216 45.5,46.5C 43.0968,46.393 41.2635,47.393 40,49.5C 39.5721,52.3217 40.0721,54.9884 41.5,57.5C 38.7256,60.1108 39.0589,62.4442 42.5,64.5C 39.9462,70.1208 41.6129,72.7874 47.5,72.5C 46.4891,74.4024 46.3224,76.4024 47,78.5C 48.417,79.0779 49.2504,80.0779 49.5,81.5C 49.5,81.8333 49.5,82.1667 49.5,82.5C 48.3263,83.5137 47.6596,84.847 47.5,86.5C 46.7659,87.7079 46.4326,89.0413 46.5,90.5C 45.5386,92.2646 45.2053,94.2646 45.5,96.5C 45.073,102.114 45.7396,107.447 47.5,112.5C 47.2594,114.898 47.9261,116.898 49.5,118.5C 50.5041,122.008 52.1707,125.174 54.5,128C 56.6742,128.877 58.3409,128.377 59.5,126.5C 62.6271,128.279 65.9604,129.613 69.5,130.5C 70.2613,131.391 71.2613,132.058 72.5,132.5C 73.3857,133.325 73.719,134.325 73.5,135.5C 79.209,135.072 84.8757,134.406 90.5,133.5C 91.5237,134.853 92.857,135.52 94.5,135.5C 95.9999,133.73 97.6666,132.063 99.5,130.5C 103.212,129.153 106.878,127.82 110.5,126.5C 111.751,128.561 113.418,128.894 115.5,127.5C 118.014,124.47 120.014,121.137 121.5,117.5C 121.833,116.167 122.167,114.833 122.5,113.5C 124.125,107.97 124.791,102.303 124.5,96.5C 124.768,94.901 124.434,93.5676 123.5,92.5C 122.85,90.5648 122.517,88.5648 122.5,86.5C 122.34,84.847 121.674,83.5137 120.5,82.5C 120.167,81.8333 119.833,81.1667 119.5,80.5C 122.882,79.1348 123.882,76.8015 122.5,73.5C 127.806,72.7104 129.473,69.877 127.5,65C 131.437,62.1123 131.437,59.279 127.5,56.5C 128.935,55.0715 129.935,53.4048 130.5,51.5C 130.547,49.9623 129.88,48.9623 128.5,48.5C 127.713,46.8958 126.38,46.2291 124.5,46.5C 124.657,45.1266 124.49,43.7932 124,42.5C 122.348,41.6006 120.848,40.6006 119.5,39.5C 119.5,38.5 119.5,37.5 119.5,36.5C 120.264,34.2603 121.098,31.9269 122,29.5C 122.383,30.056 122.883,30.3893 123.5,30.5 Z"/></g>
    <g><path style="opacity:1" fill="#716f74" d="M 118.5,31.5 C 118.461,32.5832 118.127,33.5832 117.5,34.5C 117.846,35.6956 118.346,35.6956 119,34.5C 119.464,35.0944 119.631,35.7611 119.5,36.5C 119.5,37.5 119.5,38.5 119.5,39.5C 118.833,39.5 118.5,39.8333 118.5,40.5C 113.823,40.8345 109.156,41.3345 104.5,42C 108.98,42.2926 109.313,43.126 105.5,44.5C 103.37,44.4754 101.37,43.9754 99.5,43C 104.541,41.9924 104.208,41.4924 98.5,41.5C 104.03,40.7246 109.697,39.8912 115.5,39C 117.171,34.8977 116.504,34.0643 113.5,36.5C 113.196,35.8501 112.863,35.1835 112.5,34.5C 114.528,33.451 116.528,32.451 118.5,31.5 Z"/></g>
    <g><path style="opacity:1" fill="#444152" d="M 98.5,41.5 C 95.3111,42.5137 92.4778,44.1804 90,46.5C 87.1324,50.9019 84.7991,55.5686 83,60.5C 83.3524,56.7854 83.1858,53.1187 82.5,49.5C 83.8734,49.6567 85.2068,49.49 86.5,49C 88.7397,45.2574 91.7397,42.424 95.5,40.5C 101.47,39.1652 107.47,37.8319 113.5,36.5C 116.504,34.0643 117.171,34.8977 115.5,39C 109.697,39.8912 104.03,40.7246 98.5,41.5 Z"/></g>
    <g><path style="opacity:1" fill="#6e6c72" d="M 100.5,30.5 C 96.4492,32.9786 92.4492,35.6452 88.5,38.5C 86.3226,35.9387 84.1559,35.9387 82,38.5C 77.6098,35.9058 73.4431,33.2392 69.5,30.5C 79.6517,21.2592 89.9851,21.2592 100.5,30.5 Z"/></g>
    <g><path style="opacity:1" fill="#afaea3" d="M 119.5,39.5 C 120.848,40.6006 122.348,41.6006 124,42.5C 124.49,43.7932 124.657,45.1266 124.5,46.5C 126.38,46.2291 127.713,46.8958 128.5,48.5C 129.917,51.4745 128.917,53.4745 125.5,54.5C 123.585,52.9288 122.585,50.9288 122.5,48.5C 123.962,47.3061 123.129,47.3061 120,48.5C 119.51,47.2068 119.343,45.8734 119.5,44.5C 118.448,44.6495 117.448,44.4828 116.5,44C 117.823,43.1841 118.489,42.0174 118.5,40.5C 118.5,39.8333 118.833,39.5 119.5,39.5 Z"/></g>
    <g><path style="opacity:1" fill="#e1e0cc" d="M 70.5,73.5 C 70.1667,73.5 69.8333,73.5 69.5,73.5C 57.6993,74.0337 51.6993,68.367 51.5,56.5C 51.5569,55.391 51.8902,54.391 52.5,53.5C 56.7852,46.0299 63.1186,43.5299 71.5,46C 79.3945,50.8881 81.5612,57.7215 78,66.5C 76.2576,69.7457 73.7576,72.079 70.5,73.5 Z"/></g>
    <g><path style="opacity:1" fill="#e0dfcb" d="M 117.5,53.5 C 117.5,56.8333 117.5,60.1667 117.5,63.5C 113.961,71.9365 107.628,75.1032 98.5,73C 89.5027,67.8507 87.3361,60.6841 92,51.5C 97.3115,45.3408 103.812,43.8408 111.5,47C 113.734,49.0627 115.734,51.2294 117.5,53.5 Z"/></g>
    <g><path style="opacity:1" fill="#acaca1" d="M 50.5,37.5 C 52.5695,37.5827 52.9028,38.5827 51.5,40.5C 51.5288,42.0293 52.1955,43.196 53.5,44C 50.8333,45.3333 48.1667,46.6667 45.5,48C 46.428,48.3879 47.0946,49.0546 47.5,50C 46.5705,51.0769 45.9038,52.2436 45.5,53.5C 44.467,55.0855 43.1336,56.4188 41.5,57.5C 40.0721,54.9884 39.5721,52.3217 40,49.5C 41.2635,47.393 43.0968,46.393 45.5,46.5C 44.8911,43.1216 46.2244,41.1216 49.5,40.5C 50.404,39.791 50.7373,38.791 50.5,37.5 Z"/></g>
    <g><path style="opacity:1" fill="#7b797d" d="M 95.5,40.5 C 91.7397,42.424 88.7397,45.2574 86.5,49C 85.2068,49.49 83.8734,49.6567 82.5,49.5C 82.0248,47.2163 81.0248,45.2163 79.5,43.5C 81.7258,44.9595 83.8925,45.9595 86,46.5C 87.1764,44.8043 88.343,43.1376 89.5,41.5C 89.8333,41.5 90.1667,41.5 90.5,41.5C 91.7498,41.4226 92.5831,40.756 93,39.5C 93.6708,40.2524 94.5041,40.5858 95.5,40.5 Z"/></g>
    <g><path style="opacity:1" fill="#94938f" d="M 52.5,53.5 C 51.8902,54.391 51.5569,55.391 51.5,56.5C 50.5041,56.5858 49.6708,56.2524 49,55.5C 48.5026,58.146 48.3359,60.8127 48.5,63.5C 46.8008,63.3398 45.1341,63.5065 43.5,64C 45.2694,65.0194 46.9361,65.186 48.5,64.5C 50.124,65.8689 50.624,67.5355 50,69.5C 49.4921,67.0958 48.3255,66.4291 46.5,67.5C 48.4236,68.9653 48.7569,70.632 47.5,72.5C 41.6129,72.7874 39.9462,70.1208 42.5,64.5C 39.0589,62.4442 38.7256,60.1108 41.5,57.5C 43.1336,56.4188 44.467,55.0855 45.5,53.5C 46.675,53.719 47.675,53.3857 48.5,52.5C 49.1027,51.3652 49.4361,50.3652 49.5,49.5C 50.731,50.6507 50.731,51.8173 49.5,53C 50.448,53.4828 51.448,53.6495 52.5,53.5 Z"/></g>
    <g><path style="opacity:1" fill="#231e39" d="M 69.5,54.5 C 76.5244,54.4885 78.5244,57.4885 75.5,63.5C 67.4148,64.8601 65.4148,61.8601 69.5,54.5 Z"/></g>
    <g><path style="opacity:1" fill="#201b37" d="M 95.5,54.5 C 102.297,55.1073 103.964,58.2739 100.5,64C 95.9322,65.6505 93.2656,64.1505 92.5,59.5C 93.0924,57.5775 94.0924,55.9108 95.5,54.5 Z"/></g>
    <g><path style="opacity:1" fill="#949390" d="M 122.5,48.5 C 122.585,50.9288 123.585,52.9288 125.5,54.5C 128.917,53.4745 129.917,51.4745 128.5,48.5C 129.88,48.9623 130.547,49.9623 130.5,51.5C 129.935,53.4048 128.935,55.0715 127.5,56.5C 131.437,59.279 131.437,62.1123 127.5,65C 129.473,69.877 127.806,72.7104 122.5,73.5C 123.882,76.8015 122.882,79.1348 119.5,80.5C 117.516,77.8493 117.516,75.3493 119.5,73C 119.333,72.1667 119.167,71.3333 119,70.5C 118.346,71.6956 117.846,71.6956 117.5,70.5C 118.248,68.6675 119.248,67.0009 120.5,65.5C 119.995,64.0815 118.995,63.4148 117.5,63.5C 117.5,60.1667 117.5,56.8333 117.5,53.5C 120.337,55.1723 121.004,54.5056 119.5,51.5C 119.846,50.3044 120.346,50.3044 121,51.5C 121.232,50.2625 121.732,49.2625 122.5,48.5 Z"/></g>
    <g><path style="opacity:1" fill="#9d9c97" d="M 47.5,72.5 C 49.0174,72.5106 50.1841,73.1772 51,74.5C 52.439,72.9861 53.939,72.6527 55.5,73.5C 52.2712,75.376 50.2712,78.0426 49.5,81.5C 49.2504,80.0779 48.417,79.0779 47,78.5C 46.3224,76.4024 46.4891,74.4024 47.5,72.5 Z"/></g>
    <g><path style="opacity:1" fill="#878587" d="M 51.5,56.5 C 51.6993,68.367 57.6993,74.0337 69.5,73.5C 69.631,74.2389 69.4643,74.9056 69,75.5C 68.1072,74.2888 67.2739,74.2888 66.5,75.5C 70.2569,76.9234 72.5902,79.59 73.5,83.5C 72.5,83.5 71.5,83.5 70.5,83.5C 70.5,82.5 70.5,81.5 70.5,80.5C 68.8561,80.7135 67.3561,80.3802 66,79.5C 65.2046,82.3832 66.3713,83.8832 69.5,84C 68.8333,84.3333 68.1667,84.6667 67.5,85C 68.3366,86.0113 68.67,87.1779 68.5,88.5C 67.448,88.6495 66.448,88.4828 65.5,88C 66.7112,87.1072 66.7112,86.2739 65.5,85.5C 64.8333,86.1667 64.1667,86.8333 63.5,87.5C 63.0024,86.3966 62.6691,85.3966 62.5,84.5C 61.1667,85.8333 59.8333,87.1667 58.5,88.5C 56.5,87.1667 54.5,85.8333 52.5,84.5C 50.8634,85.4439 49.8634,84.7773 49.5,82.5C 49.5,82.1667 49.5,81.8333 49.5,81.5C 50.2712,78.0426 52.2712,75.376 55.5,73.5C 53.939,72.6527 52.439,72.9861 51,74.5C 50.1841,73.1772 49.0174,72.5106 47.5,72.5C 48.7569,70.632 48.4236,68.9653 46.5,67.5C 48.3255,66.4291 49.4921,67.0958 50,69.5C 50.624,67.5355 50.124,65.8689 48.5,64.5C 46.9361,65.186 45.2694,65.0194 43.5,64C 45.1341,63.5065 46.8008,63.3398 48.5,63.5C 48.3359,60.8127 48.5026,58.146 49,55.5C 49.6708,56.2524 50.5041,56.5858 51.5,56.5 Z"/></g>
    <g><path style="opacity:1" fill="#55525f" d="M 96.5,83.5 C 94.407,88.4936 94.0736,93.4936 95.5,98.5C 96.1728,103.181 97.8395,107.514 100.5,111.5C 100.5,112.5 100.5,113.5 100.5,114.5C 96.4647,110.44 94.1313,105.44 93.5,99.5C 92.4583,98.2089 91.2917,98.2089 90,99.5C 89.5,99 89,98.5 88.5,98C 89.7375,97.7679 90.7375,97.2679 91.5,96.5C 93.7446,95.1722 94.0779,93.3388 92.5,91C 94.2399,86.6792 95.2399,82.1792 95.5,77.5C 96.675,77.281 97.675,77.6143 98.5,78.5C 97.8256,80.1955 97.1589,81.8621 96.5,83.5 Z"/></g>
    <g><path style="opacity:1" fill="#828083" d="M 54.5,28.5 C 53.2438,28.4614 52.2438,28.9614 51.5,30C 52.9733,30.7096 53.6399,31.8762 53.5,33.5C 57.0461,34.239 60.3794,35.5723 63.5,37.5C 65.8006,36.6042 68.1339,36.4375 70.5,37C 69.3044,37.6543 69.3044,38.1543 70.5,38.5C 74.1388,38.1227 77.4721,39.2894 80.5,42C 79.944,42.3826 79.6107,42.8826 79.5,43.5C 74.4009,40.1776 68.7342,38.6776 62.5,39C 59.3763,38.5209 56.5429,37.3543 54,35.5C 53.1349,37.8878 53.9683,39.3878 56.5,40C 61.5,40.3333 66.5,40.6667 71.5,41C 75.6138,43.2835 79.2804,46.1169 82.5,49.5C 83.1858,53.1187 83.3524,56.7854 83,60.5C 84.7991,55.5686 87.1324,50.9019 90,46.5C 92.4778,44.1804 95.3111,42.5137 98.5,41.5C 104.208,41.4924 104.541,41.9924 99.5,43C 101.37,43.9754 103.37,44.4754 105.5,44.5C 109.313,43.126 108.98,42.2926 104.5,42C 109.156,41.3345 113.823,40.8345 118.5,40.5C 118.489,42.0174 117.823,43.1841 116.5,44C 117.448,44.4828 118.448,44.6495 119.5,44.5C 119.343,45.8734 119.51,47.2068 120,48.5C 123.129,47.3061 123.962,47.3061 122.5,48.5C 121.732,49.2625 121.232,50.2625 121,51.5C 120.346,50.3044 119.846,50.3044 119.5,51.5C 121.004,54.5056 120.337,55.1723 117.5,53.5C 115.734,51.2294 113.734,49.0627 111.5,47C 103.812,43.8408 97.3115,45.3408 92,51.5C 87.3361,60.6841 89.5027,67.8507 98.5,73C 107.628,75.1032 113.961,71.9365 117.5,63.5C 118.995,63.4148 119.995,64.0815 120.5,65.5C 119.248,67.0009 118.248,68.6675 117.5,70.5C 117.846,71.6956 118.346,71.6956 119,70.5C 119.167,71.3333 119.333,72.1667 119.5,73C 117.516,75.3493 117.516,77.8493 119.5,80.5C 119.833,81.1667 120.167,81.8333 120.5,82.5C 119.884,84.4171 118.55,85.5838 116.5,86C 117.167,86.3333 117.833,86.6667 118.5,87C 116.765,87.6514 115.098,87.4847 113.5,86.5C 111.495,89.0278 109.829,88.6945 108.5,85.5C 107.522,85.9767 106.689,86.6433 106,87.5C 104.411,85.9736 102.577,84.8069 100.5,84C 103.881,83.8176 104.881,82.3176 103.5,79.5C 102.264,80.2458 100.93,80.5792 99.5,80.5C 99.5,81.5 99.5,82.5 99.5,83.5C 98.5,83.5 97.5,83.5 96.5,83.5C 97.1589,81.8621 97.8256,80.1955 98.5,78.5C 97.675,77.6143 96.675,77.281 95.5,77.5C 95.2399,82.1792 94.2399,86.6792 92.5,91C 94.0779,93.3388 93.7446,95.1722 91.5,96.5C 89.8561,96.7135 88.3561,96.3802 87,95.5C 87.4969,93.8016 87.3302,92.1349 86.5,90.5C 88.0031,88.5784 90.0031,87.4117 92.5,87C 92.3205,84.8013 92.3205,82.6346 92.5,80.5C 89.4426,82.7214 86.9426,85.3881 85,88.5C 82.6295,85.118 79.7962,82.118 76.5,79.5C 75.6143,78.675 75.281,77.675 75.5,76.5C 73.3364,76.2785 71.6697,75.2785 70.5,73.5C 73.7576,72.079 76.2576,69.7457 78,66.5C 81.5612,57.7215 79.3945,50.8881 71.5,46C 63.1186,43.5299 56.7852,46.0299 52.5,53.5C 51.448,53.6495 50.448,53.4828 49.5,53C 50.731,51.8173 50.731,50.6507 49.5,49.5C 49.4361,50.3652 49.1027,51.3652 48.5,52.5C 47.675,53.3857 46.675,53.719 45.5,53.5C 45.9038,52.2436 46.5705,51.0769 47.5,50C 47.0946,49.0546 46.428,48.3879 45.5,48C 48.1667,46.6667 50.8333,45.3333 53.5,44C 52.1955,43.196 51.5288,42.0293 51.5,40.5C 52.9028,38.5827 52.5695,37.5827 50.5,37.5C 50.5785,33.1826 50.0785,28.8492 49,24.5C 50.8121,25.9771 52.6455,27.3104 54.5,28.5 Z"/></g>
    <g><path style="opacity:1" fill="#5e5b66" d="M 84.5,63.5 C 86.0983,65.3952 87.4316,67.5619 88.5,70C 86.5946,70.8261 86.2612,71.9928 87.5,73.5C 89.7626,71.2922 91.4292,71.9589 92.5,75.5C 92.3333,76.1667 92.1667,76.8333 92,77.5C 89.4278,79.3295 87.0945,81.3295 85,83.5C 82.628,81.0701 79.7946,78.4034 76.5,75.5C 77.4803,74.0186 78.647,72.6853 80,71.5C 81.262,73.3028 82.9287,74.6361 85,75.5C 85.0293,72.9801 83.8626,70.9801 81.5,69.5C 82.8829,67.6802 83.8829,65.6802 84.5,63.5 Z"/></g>
    <g><path style="opacity:1" fill="#3c394c" d="M 79.5,43.5 C 81.0248,45.2163 82.0248,47.2163 82.5,49.5C 79.2804,46.1169 75.6138,43.2835 71.5,41C 66.5,40.6667 61.5,40.3333 56.5,40C 53.9683,39.3878 53.1349,37.8878 54,35.5C 56.5429,37.3543 59.3763,38.5209 62.5,39C 68.7342,38.6776 74.4009,40.1776 79.5,43.5 Z"/></g>
    <g><path style="opacity:1" fill="#9d9c98" d="M 120.5,82.5 C 121.674,83.5137 122.34,84.847 122.5,86.5C 121.883,86.3893 121.383,86.056 121,85.5C 119.885,87.9081 118.218,89.9081 116,91.5C 115.311,90.6433 114.478,89.9767 113.5,89.5C 111.689,90.7357 109.856,90.7357 108,89.5C 106.527,89.9031 105.194,90.5697 104,91.5C 100.645,88.6176 98.6446,89.2842 98,93.5C 100.005,91.1996 102.172,91.1996 104.5,93.5C 106.952,90.7156 108.952,91.049 110.5,94.5C 108.865,95.6808 107.198,95.6808 105.5,94.5C 103.821,95.782 101.987,96.782 100,97.5C 99.6924,96.6919 99.1924,96.0253 98.5,95.5C 97.7124,96.7701 96.7124,97.7701 95.5,98.5C 94.0736,93.4936 94.407,88.4936 96.5,83.5C 97.5,83.5 98.5,83.5 99.5,83.5C 99.5,82.5 99.5,81.5 99.5,80.5C 100.93,80.5792 102.264,80.2458 103.5,79.5C 104.881,82.3176 103.881,83.8176 100.5,84C 102.577,84.8069 104.411,85.9736 106,87.5C 106.689,86.6433 107.522,85.9767 108.5,85.5C 109.829,88.6945 111.495,89.0278 113.5,86.5C 115.098,87.4847 116.765,87.6514 118.5,87C 117.833,86.6667 117.167,86.3333 116.5,86C 118.55,85.5838 119.884,84.4171 120.5,82.5 Z"/></g>
    <g><path style="opacity:1" fill="#a4a39d" d="M 73.5,83.5 C 74.1098,84.391 74.4431,85.391 74.5,86.5C 73.9779,88.2191 72.9779,89.5525 71.5,90.5C 63.8365,90.3831 56.1699,90.0498 48.5,89.5C 48.7373,88.209 48.404,87.209 47.5,86.5C 47.6596,84.847 48.3263,83.5137 49.5,82.5C 49.8634,84.7773 50.8634,85.4439 52.5,84.5C 54.5,85.8333 56.5,87.1667 58.5,88.5C 59.8333,87.1667 61.1667,85.8333 62.5,84.5C 62.6691,85.3966 63.0024,86.3966 63.5,87.5C 64.1667,86.8333 64.8333,86.1667 65.5,85.5C 66.7112,86.2739 66.7112,87.1072 65.5,88C 66.448,88.4828 67.448,88.6495 68.5,88.5C 68.67,87.1779 68.3366,86.0113 67.5,85C 68.1667,84.6667 68.8333,84.3333 69.5,84C 66.3713,83.8832 65.2046,82.3832 66,79.5C 67.3561,80.3802 68.8561,80.7135 70.5,80.5C 70.5,81.5 70.5,82.5 70.5,83.5C 71.5,83.5 72.5,83.5 73.5,83.5 Z"/></g>
    <g><path style="opacity:1" fill="#6f6d74" d="M 69.5,73.5 C 69.8333,73.5 70.1667,73.5 70.5,73.5C 71.6697,75.2785 73.3364,76.2785 75.5,76.5C 75.281,77.675 75.6143,78.675 76.5,79.5C 79.7962,82.118 82.6295,85.118 85,88.5C 86.9426,85.3881 89.4426,82.7214 92.5,80.5C 92.3205,82.6346 92.3205,84.8013 92.5,87C 90.0031,87.4117 88.0031,88.5784 86.5,90.5C 87.3302,92.1349 87.4969,93.8016 87,95.5C 88.3561,96.3802 89.8561,96.7135 91.5,96.5C 90.7375,97.2679 89.7375,97.7679 88.5,98C 89,98.5 89.5,99 90,99.5C 91.2917,98.2089 92.4583,98.2089 93.5,99.5C 91.264,100.389 89.264,101.722 87.5,103.5C 90.1306,105.005 89.7973,105.671 86.5,105.5C 84.9622,97.6674 83.9622,97.6674 83.5,105.5C 78.7797,105.775 78.4463,104.941 82.5,103C 80.4497,102.584 79.1164,101.417 78.5,99.5C 82.4178,98.4754 82.4178,97.4754 78.5,96.5C 80.4286,96.7692 82.0953,96.2692 83.5,95C 81.6874,95.0464 80.0207,94.8797 78.5,94.5C 85.3062,91.2854 84.9728,88.952 77.5,87.5C 77.4208,86.0695 77.7542,84.7362 78.5,83.5C 77.675,82.6143 76.675,82.281 75.5,82.5C 75.8545,84.7674 75.5211,86.1007 74.5,86.5C 74.4431,85.391 74.1098,84.391 73.5,83.5C 72.5902,79.59 70.2569,76.9234 66.5,75.5C 67.2739,74.2888 68.1072,74.2888 69,75.5C 69.4643,74.9056 69.631,74.2389 69.5,73.5 Z"/></g>
    <g><path style="opacity:1" fill="#77757a" d="M 47.5,86.5 C 48.404,87.209 48.7373,88.209 48.5,89.5C 56.1699,90.0498 63.8365,90.3831 71.5,90.5C 72.4484,94.1655 71.4484,94.4989 68.5,91.5C 66.326,93.7808 64.326,93.7808 62.5,91.5C 61.1667,92.1667 60.1667,93.1667 59.5,94.5C 61.9016,94.5221 64.5682,94.6888 67.5,95C 68.8544,96.2937 70.1877,96.4604 71.5,95.5C 72.2876,96.7701 73.2876,97.7701 74.5,98.5C 74.5,99.1667 74.5,99.8333 74.5,100.5C 72.8762,100.64 71.7096,99.9733 71,98.5C 67.6063,100.275 64.9396,99.608 63,96.5C 61.2361,98.2592 59.0694,98.4258 56.5,97C 55.6634,95.9887 55.33,94.8221 55.5,93.5C 53.4004,93.5228 51.5671,92.8561 50,91.5C 48.3468,91.8198 47.3468,92.8198 47,94.5C 46.51,93.2068 46.3433,91.8734 46.5,90.5C 46.4326,89.0413 46.7659,87.7079 47.5,86.5 Z"/></g>
    <g><path style="opacity:1" fill="#8d8c8c" d="M 78.5,96.5 C 77.0347,94.4537 77.368,92.6204 79.5,91C 78.1279,90.5983 76.7946,90.0983 75.5,89.5C 74.5159,92.4281 74.1826,95.4281 74.5,98.5C 73.2876,97.7701 72.2876,96.7701 71.5,95.5C 70.1877,96.4604 68.8544,96.2937 67.5,95C 64.5682,94.6888 61.9016,94.5221 59.5,94.5C 60.1667,93.1667 61.1667,92.1667 62.5,91.5C 64.326,93.7808 66.326,93.7808 68.5,91.5C 71.4484,94.4989 72.4484,94.1655 71.5,90.5C 72.9779,89.5525 73.9779,88.2191 74.5,86.5C 75.5211,86.1007 75.8545,84.7674 75.5,82.5C 76.675,82.281 77.675,82.6143 78.5,83.5C 77.7542,84.7362 77.4208,86.0695 77.5,87.5C 84.9728,88.952 85.3062,91.2854 78.5,94.5C 80.0207,94.8797 81.6874,95.0464 83.5,95C 82.0953,96.2692 80.4286,96.7692 78.5,96.5 Z"/></g>
    <g><path style="opacity:1" fill="#7c7a7e" d="M 122.5,86.5 C 122.517,88.5648 122.85,90.5648 123.5,92.5C 123.631,93.2389 123.464,93.9056 123,94.5C 122.3,92.968 121.134,91.968 119.5,91.5C 115.937,92.9586 113.604,94.9586 112.5,97.5C 111.07,97.4208 109.736,97.7542 108.5,98.5C 107.808,97.9747 107.308,97.3081 107,96.5C 106.072,99.0352 104.238,100.035 101.5,99.5C 101.921,101.91 103.254,103.743 105.5,105C 106.332,105.688 106.998,105.521 107.5,104.5C 106.1,98.3656 106.766,98.0322 109.5,103.5C 109.5,104.833 109.5,106.167 109.5,107.5C 107.833,107.5 106.167,107.5 104.5,107.5C 104.5,109.167 104.5,110.833 104.5,112.5C 103.041,112.567 101.708,112.234 100.5,111.5C 97.8395,107.514 96.1728,103.181 95.5,98.5C 96.7124,97.7701 97.7124,96.7701 98.5,95.5C 99.1924,96.0253 99.6924,96.6919 100,97.5C 101.987,96.782 103.821,95.782 105.5,94.5C 107.198,95.6808 108.865,95.6808 110.5,94.5C 108.952,91.049 106.952,90.7156 104.5,93.5C 102.172,91.1996 100.005,91.1996 98,93.5C 98.6446,89.2842 100.645,88.6176 104,91.5C 105.194,90.5697 106.527,89.9031 108,89.5C 109.856,90.7357 111.689,90.7357 113.5,89.5C 114.478,89.9767 115.311,90.6433 116,91.5C 118.218,89.9081 119.885,87.9081 121,85.5C 121.383,86.056 121.883,86.3893 122.5,86.5 Z"/></g>
    <g><path style="opacity:1" fill="#8e8d8b" d="M 123.5,92.5 C 124.434,93.5676 124.768,94.901 124.5,96.5C 123.624,96.3691 122.957,96.7025 122.5,97.5C 123.374,99.7466 123.708,102.08 123.5,104.5C 122.5,104.5 121.5,104.5 120.5,104.5C 120.714,106.144 120.38,107.644 119.5,109C 122,109.833 122.167,111 120,112.5C 119.333,111.833 118.667,111.167 118,110.5C 116.086,113.038 114.586,112.705 113.5,109.5C 114.756,109.539 115.756,109.039 116.5,108C 115.027,107.29 114.36,106.124 114.5,104.5C 115.5,104.5 116.5,104.5 117.5,104.5C 117.67,103.178 117.337,102.011 116.5,101C 118.286,100.804 119.619,99.9705 120.5,98.5C 117.982,97.4852 115.815,98.1519 114,100.5C 113.5,100.333 113,100.167 112.5,100C 113.598,99.2303 113.598,98.397 112.5,97.5C 113.604,94.9586 115.937,92.9586 119.5,91.5C 121.134,91.968 122.3,92.968 123,94.5C 123.464,93.9056 123.631,93.2389 123.5,92.5 Z"/></g>
    <g><path style="opacity:1" fill="#524f5e" d="M 78.5,96.5 C 82.4178,97.4754 82.4178,98.4754 78.5,99.5C 77.791,98.596 76.791,98.2627 75.5,98.5C 75.4249,101.206 75.0916,103.873 74.5,106.5C 73.1378,109.702 71.3045,112.702 69,115.5C 68.2516,113.16 68.7516,111.16 70.5,109.5C 72.2049,106.739 73.5383,103.739 74.5,100.5C 74.5,99.8333 74.5,99.1667 74.5,98.5C 74.1826,95.4281 74.5159,92.4281 75.5,89.5C 76.7946,90.0983 78.1279,90.5983 79.5,91C 77.368,92.6204 77.0347,94.4537 78.5,96.5 Z"/></g>
    <g><path style="opacity:1" fill="#9b9a96" d="M 46.5,90.5 C 46.3433,91.8734 46.51,93.2068 47,94.5C 47.3468,92.8198 48.3468,91.8198 50,91.5C 51.5671,92.8561 53.4004,93.5228 55.5,93.5C 55.33,94.8221 55.6634,95.9887 56.5,97C 59.0694,98.4258 61.2361,98.2592 63,96.5C 64.9396,99.608 67.6063,100.275 71,98.5C 71.7096,99.9733 72.8762,100.64 74.5,100.5C 73.5383,103.739 72.2049,106.739 70.5,109.5C 67.2819,109.349 66.9485,108.516 69.5,107C 66.555,103.825 63.8883,103.992 61.5,107.5C 58.2497,100.585 56.583,101.252 56.5,109.5C 51.7641,109.115 51.4307,107.781 55.5,105.5C 54.675,104.614 53.675,104.281 52.5,104.5C 52.719,103.325 52.3857,102.325 51.5,101.5C 50.5713,102.689 50.238,104.022 50.5,105.5C 49.1667,105.5 47.8333,105.5 46.5,105.5C 46.81,102.287 46.4767,99.2869 45.5,96.5C 45.2053,94.2646 45.5386,92.2646 46.5,90.5 Z"/></g>
    <g><path style="opacity:1" fill="#a5a49d" d="M 112.5,97.5 C 113.598,98.397 113.598,99.2303 112.5,100C 113,100.167 113.5,100.333 114,100.5C 115.815,98.1519 117.982,97.4852 120.5,98.5C 119.619,99.9705 118.286,100.804 116.5,101C 117.337,102.011 117.67,103.178 117.5,104.5C 116.5,104.5 115.5,104.5 114.5,104.5C 114.36,106.124 115.027,107.29 116.5,108C 115.756,109.039 114.756,109.539 113.5,109.5C 112.85,107.565 112.517,105.565 112.5,103.5C 111.5,103.5 110.5,103.5 109.5,103.5C 106.766,98.0322 106.1,98.3656 107.5,104.5C 106.998,105.521 106.332,105.688 105.5,105C 103.254,103.743 101.921,101.91 101.5,99.5C 104.238,100.035 106.072,99.0352 107,96.5C 107.308,97.3081 107.808,97.9747 108.5,98.5C 109.736,97.7542 111.07,97.4208 112.5,97.5 Z"/></g>
    <g><path style="opacity:1" fill="#7a787b" d="M 45.5,96.5 C 46.4767,99.2869 46.81,102.287 46.5,105.5C 47.8333,105.5 49.1667,105.5 50.5,105.5C 50.238,104.022 50.5713,102.689 51.5,101.5C 52.3857,102.325 52.719,103.325 52.5,104.5C 53.675,104.281 54.675,104.614 55.5,105.5C 51.4307,107.781 51.7641,109.115 56.5,109.5C 58.0863,111.081 59.0863,113.081 59.5,115.5C 58.3112,116.429 56.9778,116.762 55.5,116.5C 55.6567,115.127 55.49,113.793 55,112.5C 52.1293,113.495 49.6293,113.495 47.5,112.5C 45.7396,107.447 45.073,102.114 45.5,96.5 Z"/></g>
    <g><path style="opacity:1" fill="#62606a" d="M 92.5,130.5 C 89.3479,130.047 86.8479,131.047 85,133.5C 83.1636,131.93 83.3303,130.43 85.5,129C 85.1667,128.5 84.8333,128 84.5,127.5C 83.4679,129.04 82.1346,129.54 80.5,129C 81.7836,127.703 81.6169,126.536 80,125.5C 78.5993,127.192 76.7659,127.859 74.5,127.5C 74.2623,124.592 75.2623,122.258 77.5,120.5C 76.9747,119.808 76.3081,119.308 75.5,119C 76.3081,118.692 76.9747,118.192 77.5,117.5C 75.5868,116.949 73.5868,116.782 71.5,117C 72.5786,116.044 73.7453,115.211 75,114.5C 74.7374,113.049 74.9041,111.716 75.5,110.5C 77.7051,109.626 79.5384,110.292 81,112.5C 81.4828,111.552 81.6495,110.552 81.5,109.5C 80.325,109.719 79.325,109.386 78.5,108.5C 78.9569,107.702 79.6236,107.369 80.5,107.5C 83.898,106.71 87.0646,106.71 90,107.5C 90.5,107.833 91,108.167 91.5,108.5C 90.5,109.167 89.5,109.833 88.5,110.5C 89.6461,111.719 90.6461,113.052 91.5,114.5C 93.3939,113.399 94.0606,112.066 93.5,110.5C 93.8561,113.688 95.5228,115.855 98.5,117C 96.4132,116.782 94.4132,116.949 92.5,117.5C 93.0253,118.192 93.6919,118.692 94.5,119C 93.6919,119.308 93.0253,119.808 92.5,120.5C 94.216,120.997 95.8827,121.331 97.5,121.5C 96.1964,124.75 94.5297,127.75 92.5,130.5 Z"/></g>
    <g><path style="opacity:1" fill="#7e7c7e" d="M 70.5,109.5 C 68.7516,111.16 68.2516,113.16 69,115.5C 71.3045,112.702 73.1378,109.702 74.5,106.5C 74.811,107.478 75.4777,108.145 76.5,108.5C 77.6956,108.154 77.6956,107.654 76.5,107C 78.0657,106.235 79.3991,106.402 80.5,107.5C 79.6236,107.369 78.9569,107.702 78.5,108.5C 79.325,109.386 80.325,109.719 81.5,109.5C 81.6495,110.552 81.4828,111.552 81,112.5C 79.5384,110.292 77.7051,109.626 75.5,110.5C 74.9041,111.716 74.7374,113.049 75,114.5C 73.7453,115.211 72.5786,116.044 71.5,117C 73.5868,116.782 75.5868,116.949 77.5,117.5C 76.9747,118.192 76.3081,118.692 75.5,119C 76.3081,119.308 76.9747,119.808 77.5,120.5C 75.2623,122.258 74.2623,124.592 74.5,127.5C 76.7659,127.859 78.5993,127.192 80,125.5C 81.6169,126.536 81.7836,127.703 80.5,129C 82.1346,129.54 83.4679,129.04 84.5,127.5C 84.8333,128 85.1667,128.5 85.5,129C 83.3303,130.43 83.1636,131.93 85,133.5C 86.8479,131.047 89.3479,130.047 92.5,130.5C 93.8333,130.5 94.5,131.167 94.5,132.5C 91.8333,133.167 91.8333,133.833 94.5,134.5C 94.5,134.833 94.5,135.167 94.5,135.5C 92.857,135.52 91.5237,134.853 90.5,133.5C 84.8757,134.406 79.209,135.072 73.5,135.5C 73.719,134.325 73.3857,133.325 72.5,132.5C 71.2613,132.058 70.2613,131.391 69.5,130.5C 71.0257,129.895 72.0257,128.729 72.5,127C 71.552,126.517 70.552,126.351 69.5,126.5C 68.6827,123.521 67.8494,120.521 67,117.5C 65.483,119.24 63.983,120.906 62.5,122.5C 62.719,121.325 62.3857,120.325 61.5,119.5C 60.2888,120.274 60.2888,121.107 61.5,122C 60.5509,122.617 59.7175,122.451 59,121.5C 59.6171,123.095 59.2837,124.428 58,125.5C 57.3946,123.519 56.3946,123.185 55,124.5C 53.2041,122.598 53.0374,120.598 54.5,118.5C 57.6473,118.263 60.6473,117.43 63.5,116C 60.059,114.742 58.7257,112.242 59.5,108.5C 60.552,108.351 61.552,108.517 62.5,109C 61.1118,109.889 61.2785,110.389 63,110.5C 66.529,108.042 66.029,107.042 61.5,107.5C 63.8883,103.992 66.555,103.825 69.5,107C 66.9485,108.516 67.2819,109.349 70.5,109.5 Z"/></g>
    <g><path style="opacity:1" fill="#65626c" d="M 61.5,107.5 C 66.029,107.042 66.529,108.042 63,110.5C 61.2785,110.389 61.1118,109.889 62.5,109C 61.552,108.517 60.552,108.351 59.5,108.5C 58.7257,112.242 60.059,114.742 63.5,116C 60.6473,117.43 57.6473,118.263 54.5,118.5C 54.2089,117.351 53.3756,116.684 52,116.5C 50.6244,116.684 49.7911,117.351 49.5,118.5C 47.9261,116.898 47.2594,114.898 47.5,112.5C 49.6293,113.495 52.1293,113.495 55,112.5C 55.49,113.793 55.6567,115.127 55.5,116.5C 56.9778,116.762 58.3112,116.429 59.5,115.5C 59.0863,113.081 58.0863,111.081 56.5,109.5C 56.583,101.252 58.2497,100.585 61.5,107.5 Z"/></g>
    <g><path style="opacity:1" fill="#7e7c7e" d="M 122.5,113.5 C 122.167,114.833 121.833,116.167 121.5,117.5C 117.251,115.595 114.918,116.929 114.5,121.5C 112.833,121.5 111.167,121.5 109.5,121.5C 109.473,119.801 108.806,118.467 107.5,117.5C 108.552,117.649 109.552,117.483 110.5,117C 110.167,116.667 109.833,116.333 109.5,116C 110.863,114.055 111.697,111.888 112,109.5C 113.756,115.642 117.256,116.976 122.5,113.5 Z"/></g>
    <g><path style="opacity:1" fill="#66636c" d="M 69.5,130.5 C 65.9604,129.613 62.6271,128.279 59.5,126.5C 60.5,125.167 61.5,123.833 62.5,122.5C 63.983,120.906 65.483,119.24 67,117.5C 67.8494,120.521 68.6827,123.521 69.5,126.5C 70.552,126.351 71.552,126.517 72.5,127C 72.0257,128.729 71.0257,129.895 69.5,130.5 Z"/></g>
    <g><path style="opacity:1" fill="#8f8e8c" d="M 82.5,115.5 C 89.306,116.416 90.1393,119.082 85,123.5C 81.3996,121.778 80.5662,119.111 82.5,115.5 Z"/></g>
    <g><path style="opacity:1" fill="#67646d" d="M 124.5,96.5 C 124.791,102.303 124.125,107.97 122.5,113.5C 117.256,116.976 113.756,115.642 112,109.5C 111.697,111.888 110.863,114.055 109.5,116C 109.833,116.333 110.167,116.667 110.5,117C 109.552,117.483 108.552,117.649 107.5,117.5C 106.142,116.374 104.808,116.374 103.5,117.5C 105.475,120.805 107.809,123.805 110.5,126.5C 106.878,127.82 103.212,129.153 99.5,130.5C 98.9717,129.279 98.305,128.113 97.5,127C 98.448,126.517 99.448,126.351 100.5,126.5C 100.724,124.213 101.391,122.047 102.5,120C 101.68,118.2 101.014,116.366 100.5,114.5C 100.5,113.5 100.5,112.5 100.5,111.5C 101.708,112.234 103.041,112.567 104.5,112.5C 104.5,110.833 104.5,109.167 104.5,107.5C 106.167,107.5 107.833,107.5 109.5,107.5C 109.5,106.167 109.5,104.833 109.5,103.5C 110.5,103.5 111.5,103.5 112.5,103.5C 112.517,105.565 112.85,107.565 113.5,109.5C 114.586,112.705 116.086,113.038 118,110.5C 118.667,111.167 119.333,111.833 120,112.5C 122.167,111 122,109.833 119.5,109C 120.38,107.644 120.714,106.144 120.5,104.5C 121.5,104.5 122.5,104.5 123.5,104.5C 123.708,102.08 123.374,99.7466 122.5,97.5C 122.957,96.7025 123.624,96.3691 124.5,96.5 Z"/></g>
    <g><path style="opacity:1" fill="#94948f" d="M 107.5,117.5 C 108.806,118.467 109.473,119.801 109.5,121.5C 111.167,121.5 112.833,121.5 114.5,121.5C 114.918,116.929 117.251,115.595 121.5,117.5C 120.014,121.137 118.014,124.47 115.5,127.5C 113.418,128.894 111.751,128.561 110.5,126.5C 107.809,123.805 105.475,120.805 103.5,117.5C 104.808,116.374 106.142,116.374 107.5,117.5 Z"/></g>
    <g><path style="opacity:1" fill="#878686" d="M 78.5,99.5 C 79.1164,101.417 80.4497,102.584 82.5,103C 78.4463,104.941 78.7797,105.775 83.5,105.5C 83.9622,97.6674 84.9622,97.6674 86.5,105.5C 89.7973,105.671 90.1306,105.005 87.5,103.5C 89.264,101.722 91.264,100.389 93.5,99.5C 94.1313,105.44 96.4647,110.44 100.5,114.5C 101.014,116.366 101.68,118.2 102.5,120C 101.391,122.047 100.724,124.213 100.5,126.5C 99.448,126.351 98.448,126.517 97.5,127C 98.305,128.113 98.9717,129.279 99.5,130.5C 97.6666,132.063 95.9999,133.73 94.5,135.5C 94.5,135.167 94.5,134.833 94.5,134.5C 95.8333,133.833 95.8333,133.167 94.5,132.5C 94.5,131.167 93.8333,130.5 92.5,130.5C 94.5297,127.75 96.1964,124.75 97.5,121.5C 95.8827,121.331 94.216,120.997 92.5,120.5C 93.0253,119.808 93.6919,119.308 94.5,119C 93.6919,118.692 93.0253,118.192 92.5,117.5C 94.4132,116.949 96.4132,116.782 98.5,117C 95.5228,115.855 93.8561,113.688 93.5,110.5C 94.0606,112.066 93.3939,113.399 91.5,114.5C 90.6461,113.052 89.6461,111.719 88.5,110.5C 89.5,109.833 90.5,109.167 91.5,108.5C 91,108.167 90.5,107.833 90,107.5C 87.0646,106.71 83.898,106.71 80.5,107.5C 79.3991,106.402 78.0657,106.235 76.5,107C 77.6956,107.654 77.6956,108.154 76.5,108.5C 75.4777,108.145 74.811,107.478 74.5,106.5C 75.0916,103.873 75.4249,101.206 75.5,98.5C 76.791,98.2627 77.791,98.596 78.5,99.5 Z"/></g>
    <g><path style="opacity:1" fill="#d2d1b8" d="M 22.5,118.5 C 24.3904,118.297 25.8904,118.963 27,120.5C 28.4659,118.675 30.2992,118.175 32.5,119C 33.1097,120.947 33.9431,122.781 35,124.5C 35.6667,123.833 36.3333,123.167 37,122.5C 40.7001,124.554 41.2001,127.054 38.5,130C 41.4471,130.112 42.7804,131.612 42.5,134.5C 43.8221,134.33 44.9887,134.663 46,135.5C 46.3108,137.556 46.8108,139.556 47.5,141.5C 47.3764,142.107 47.0431,142.44 46.5,142.5C 36.1391,136.806 28.1391,128.806 22.5,118.5 Z"/></g>
    <g><path style="opacity:1" fill="#9b9b94" d="M 54.5,118.5 C 53.0374,120.598 53.2041,122.598 55,124.5C 56.3946,123.185 57.3946,123.519 58,125.5C 59.2837,124.428 59.6171,123.095 59,121.5C 59.7175,122.451 60.5509,122.617 61.5,122C 60.2888,121.107 60.2888,120.274 61.5,119.5C 62.3857,120.325 62.719,121.325 62.5,122.5C 61.5,123.833 60.5,125.167 59.5,126.5C 58.3409,128.377 56.6742,128.877 54.5,128C 52.1707,125.174 50.5041,122.008 49.5,118.5C 49.7911,117.351 50.6244,116.684 52,116.5C 53.3756,116.684 54.2089,117.351 54.5,118.5 Z"/></g>
    <g><path style="opacity:1" fill="#26223a" d="M 94.5,132.5 C 95.8333,133.167 95.8333,133.833 94.5,134.5C 91.8333,133.833 91.8333,133.167 94.5,132.5 Z"/></g>
    <g><path style="opacity:1" fill="#26223b" d="M 74.5,132.5 C 75.675,132.281 76.675,132.614 77.5,133.5C 75.9483,134.798 74.9483,134.465 74.5,132.5 Z"/></g>
</svg>
